<svg width="338" height="120" viewBox="0 0 338 120" fill="none" xmlns="http://www.w3.org/2000/svg">
<g clip-path="url(#clip0)">
<path d="M68.9 77.8601C68.26 77.3501 68.01 76.9701 68.58 75.9501L70.87 72.0101C70.9739 71.8294 71.1152 71.6728 71.2842 71.5509C71.4533 71.4289 71.6464 71.3444 71.8507 71.3027C72.055 71.2611 72.2658 71.2634 72.4691 71.3095C72.6724 71.3556 72.8636 71.4444 73.03 71.5701C75.63 73.5701 78.49 75.5101 82.62 75.5101C85.93 75.5101 88.41 73.3501 88.41 70.6101C88.41 67.3701 85.67 65.1501 80.34 62.9901C74.34 60.5701 68.34 56.7601 68.34 49.2601C68.34 43.6001 72.53 37.0601 82.64 37.0601C87.211 37.1471 91.646 38.6301 95.35 41.3101C95.6625 41.5506 95.8744 41.8988 95.9446 42.2868C96.0149 42.6749 95.9384 43.0752 95.73 43.4101L93.37 47.0001C93.174 47.3957 92.8302 47.6983 92.4129 47.8423C91.9956 47.9864 91.5383 47.9605 91.14 47.7701C88.41 46.0501 85.8 44.2701 82.31 44.2701C78.82 44.2701 76.71 46.2701 76.71 48.7201C76.71 51.7201 79.07 53.7201 84.21 55.8401C90.38 58.3201 97.5 62.0001 97.5 70.2001C97.5 76.7501 91.84 82.7901 82.88 82.7901C74.87 82.8201 70.74 79.4501 68.9 77.8601Z" fill="#051C2C"/>
<path d="M115.74 45.3201H106C105.679 45.3201 105.371 45.1926 105.144 44.9657C104.918 44.7388 104.79 44.431 104.79 44.1101V38.9001C104.79 38.7412 104.821 38.5839 104.882 38.4371C104.943 38.2903 105.032 38.1569 105.144 38.0445C105.257 37.9321 105.39 37.843 105.537 37.7822C105.684 37.7214 105.841 37.6901 106 37.6901H133.77C133.931 37.6875 134.09 37.7168 134.239 37.7764C134.388 37.836 134.524 37.9247 134.639 38.0374C134.753 38.15 134.844 38.2843 134.906 38.4324C134.968 38.5805 135 38.7395 135 38.9001V44.1101C135 44.431 134.873 44.7388 134.646 44.9657C134.419 45.1926 134.111 45.3201 133.79 45.3201H124.07V81.0001C124.058 81.3171 123.926 81.6177 123.702 81.842C123.478 82.0663 123.177 82.1978 122.86 82.2101H117C116.682 82.2001 116.38 82.0694 116.156 81.8446C115.931 81.6198 115.8 81.3178 115.79 81.0001L115.74 45.3201Z" fill="#051C2C"/>
<path d="M137.16 80.53L156.93 37.76C157.016 37.5465 157.166 37.3647 157.359 37.2394C157.553 37.1141 157.78 37.0515 158.01 37.06H158.64C158.872 37.0437 159.102 37.1032 159.297 37.2295C159.492 37.3558 159.64 37.542 159.72 37.76L179.3 80.53C179.396 80.7077 179.443 80.9082 179.435 81.1103C179.426 81.3123 179.363 81.5083 179.253 81.6775C179.142 81.8466 178.987 81.9827 178.806 82.0712C178.624 82.1596 178.421 82.1973 178.22 82.18H172.69C172.284 82.2037 171.882 82.0918 171.547 81.8618C171.213 81.6319 170.964 81.297 170.84 80.91L167.73 74.05H148.73L145.61 80.91C145.477 81.289 145.227 81.6161 144.897 81.8443C144.566 82.0725 144.172 82.19 143.77 82.18H138.24C138.039 82.1973 137.836 82.1596 137.654 82.0712C137.473 81.9827 137.318 81.8466 137.207 81.6775C137.097 81.5083 137.034 81.3123 137.025 81.1103C137.017 80.9082 137.064 80.7077 137.16 80.53ZM164.62 67L158.26 53H158.07L151.84 67H164.62Z" fill="#051C2C"/>
<path d="M192.39 45.3199H182.67C182.349 45.3199 182.041 45.1925 181.814 44.9655C181.587 44.7386 181.46 44.4309 181.46 44.1099V38.8999C181.46 38.579 181.587 38.2713 181.814 38.0443C182.041 37.8174 182.349 37.6899 182.67 37.6899H210.44C210.761 37.6899 211.069 37.8174 211.296 38.0443C211.522 38.2713 211.65 38.579 211.65 38.8999V44.1099C211.65 44.4309 211.522 44.7386 211.296 44.9655C211.069 45.1925 210.761 45.3199 210.44 45.3199H200.72V80.9999C200.71 81.3177 200.579 81.6197 200.354 81.8444C200.13 82.0692 199.828 82.1999 199.51 82.2099H193.6C193.283 82.1976 192.982 82.0661 192.758 81.8419C192.534 81.6176 192.402 81.3169 192.39 80.9999V45.3199Z" fill="#051C2C"/>
<path d="M221.88 38.8999C221.88 38.579 222.007 38.2713 222.234 38.0443C222.461 37.8174 222.769 37.6899 223.09 37.6899H249C249.321 37.6899 249.629 37.8174 249.855 38.0443C250.082 38.2713 250.21 38.579 250.21 38.8999V44.1099C250.21 44.4309 250.082 44.7386 249.855 44.9655C249.629 45.1925 249.321 45.3199 249 45.3199H230.15V57.3199H245.85C246.165 57.3299 246.464 57.4596 246.687 57.6825C246.91 57.9054 247.04 58.2049 247.05 58.5199V63.7399C247.04 64.055 246.91 64.3545 246.687 64.5774C246.464 64.8003 246.165 64.9299 245.85 64.9399H230.15V80.9999C230.138 81.3169 230.006 81.6176 229.782 81.8419C229.558 82.0661 229.257 82.1976 228.94 82.2099H223.09C222.769 82.2099 222.461 82.0825 222.234 81.8555C222.007 81.6286 221.88 81.3209 221.88 80.9999V38.8999Z" fill="#051C2C"/>
<path d="M260.47 38.8999C260.469 38.7415 260.499 38.5844 260.558 38.4376C260.618 38.2909 260.706 38.1574 260.818 38.0449C260.929 37.9324 261.062 37.8432 261.208 37.7822C261.355 37.7213 261.512 37.6899 261.67 37.6899H267.52C267.838 37.7 268.14 37.8307 268.365 38.0554C268.589 38.2802 268.72 38.5822 268.73 38.8999V74.5499H284.93C285.251 74.5499 285.559 74.6774 285.786 74.9043C286.013 75.1313 286.14 75.439 286.14 75.7599V80.9999C286.14 81.3209 286.013 81.6286 285.786 81.8555C285.559 82.0825 285.251 82.2099 284.93 82.2099H261.67C261.512 82.2099 261.355 82.1786 261.208 82.1176C261.062 82.0567 260.929 81.9674 260.818 81.8549C260.706 81.7425 260.618 81.609 260.558 81.4622C260.499 81.3155 260.469 81.1584 260.47 80.9999V38.8999Z" fill="#051C2C"/>
<path d="M314.81 37.0599C319.336 37.0461 323.764 38.3747 327.534 40.8777C331.305 43.3807 334.248 46.9457 335.992 51.1217C337.737 55.2978 338.203 59.8973 337.333 64.3385C336.463 68.7797 334.295 72.8632 331.104 76.0724C327.913 79.2816 323.842 81.4724 319.406 82.3677C314.97 83.2629 310.368 82.8225 306.182 81.102C301.996 79.3816 298.414 76.4584 295.89 72.7022C293.366 68.946 292.012 64.5256 292 59.9999C291.987 56.9947 292.567 54.0163 293.707 51.2357C294.847 48.455 296.525 45.9266 298.644 43.7955C300.763 41.6644 303.281 39.9725 306.056 38.8167C308.83 37.6608 311.805 37.0638 314.81 37.0599ZM314.81 74.5499C317.707 74.5618 320.542 73.7127 322.956 72.1103C325.37 70.508 327.253 68.2247 328.366 65.5502C329.48 62.8757 329.774 59.9307 329.211 57.0888C328.648 54.247 327.253 51.6364 325.204 49.5886C323.155 47.5407 320.543 46.1479 317.701 45.5868C314.859 45.0258 311.914 45.3218 309.24 46.4373C306.567 47.5528 304.285 49.4376 302.684 51.8523C301.083 54.267 300.236 57.1029 300.25 59.9999C300.274 63.8533 301.815 67.5419 304.541 70.2657C307.267 72.9896 310.957 74.5289 314.81 74.5499Z" fill="#051C2C"/>
<path d="M19.9857 9.17459e-05L-0.0112305 19.9971L19.9857 39.994L39.9827 19.9971L19.9857 9.17459e-05Z" fill="#E21D7A"/>
<path d="M-0.0100098 60L19.99 40L-0.0100098 20V60Z" fill="#AF2185"/>
<path d="M19.9901 40.0042L-0.00683594 60.0012L19.9901 79.9982L39.9871 60.0012L19.9901 40.0042Z" fill="#293A89"/>
<path d="M19.99 80L39.99 100V60L19.99 80Z" fill="#158EB2"/>
<path d="M19.9943 80.0086L-0.00268555 100.006L19.9943 120.003L39.9913 100.006L19.9943 80.0086Z" fill="#3DB8C0"/>
</g>
<defs>
<clipPath id="clip0">
<rect width="338" height="120" fill="white"/>
</clipPath>
</defs>
</svg>
